PathFileType	4	(X/Y/Z)	E:\3-PhD\Data\MocapData\ElaboratedData\012\pre\dynamicElaborations\RunA1\RunA1.trc
DataRate	CameraRate	NumFrames	NumMarkers	Units	OrigDataRate	DataStartFrame
200	200	4	56	mm	200	473
Frame#	Time	FHD			LBHD			RBHD			C7			T10			CLAV			LSHO			LUUPA			LMUPA			LDUPA			LLEP			LMEP			LRAD			LUL			LRFIN			RSHO			RUPA1			RMUPA			RDUPA			RLEP			RMEP			RRAD			RUL			RUFIN			LASI			RASI			USACR			LSACR			RSACR			LTHI1			LTHI2			LTHI3			LTHI4			LLFC			LTIB1			LTIB2			LTIB3			LTIB4			LHEE			LMT1			LMT5			LMT2			RTHI			RTHI2			RTHI3			RTHI4			RLFC			RTIB1			RTIB2			RTIB3			RTIB4			RLMAL			RHEE			RMT1			RMT2			RMT5		
		X1	Y1	Z1	X2	Y2	Z2	X3	Y3	Z3	X4	Y4	Z4	X5	Y5	Z5	X6	Y6	Z6	X7	Y7	Z7	X8	Y8	Z8	X9	Y9	Z9	X10	Y10	Z10	X11	Y11	Z11	X12	Y12	Z12	X13	Y13	Z13	X14	Y14	Z14	X15	Y15	Z15	X16	Y16	Z16	X17	Y17	Z17	X18	Y18	Z18	X19	Y19	Z19	X20	Y20	Z20	X21	Y21	Z21	X22	Y22	Z22	X23	Y23	Z23	X24	Y24	Z24	X25	Y25	Z25	X26	Y26	Z26	X27	Y27	Z27	X28	Y28	Z28	X29	Y29	Z29	X30	Y30	Z30	X31	Y31	Z31	X32	Y32	Z32	X33	Y33	Z33	X34	Y34	Z34	X35	Y35	Z35	X36	Y36	Z36	X37	Y37	Z37	X38	Y38	Z38	X39	Y39	Z39	X40	Y40	Z40	X41	Y41	Z41	X42	Y42	Z42	X43	Y43	Z43	X44	Y44	Z44	X45	Y45	Z45	X46	Y46	Z46	X47	Y47	Z47	X48	Y48	Z48	X49	Y49	Z49	X50	Y50	Z50	X51	Y51	Z51	X52	Y52	Z52	X53	Y53	Z53	X54	Y54	Z54	X55	Y55	Z55	X56	Y56	Z56	

509	2.540000	-2545.755654	1742.696963	468.623416	-2706.947560	1716.940847	377.326847	-2683.004177	1708.076489	526.722330	-2750.254273	1552.641812	454.755775	-2910.789293	1244.361424	386.510001	-2632.066290	1438.404335	422.662031	-2656.279764	1572.758271	295.906697	-2801.253103	1496.396214	134.213905	-2782.334600	1459.947743	102.379962	-2842.089783	1461.433658	88.859656	-2879.292911	1398.091530	28.335348	-2924.742677	1372.085670	97.693802	-2837.522706	1122.463749	6.513700	-2860.367182	1141.655614	-65.811384	-2851.858640	1037.480796	-14.529607	-2635.144036	1483.643748	591.074634	-2688.753224	1251.674424	648.842647	-2647.776491	1234.402917	626.709699	-2677.557049	1184.248312	633.786037	-2660.595884	1114.655906	613.046137	-2700.286046	1114.335000	531.152364	-2463.183324	1223.048010	442.767322	-2421.913160	1158.980399	457.669770	-2386.786884	1246.751455	403.037548	-2806.911749	994.594002	266.527013	-2880.938720	976.264547	488.253062	-2973.720895	1128.759575	344.892075	-2986.213142	1104.598151	311.248467	-2999.755064	1102.754764	366.174240	-2770.205652	816.329273	171.935379	-2690.232429	789.675324	192.604386	-2666.077489	817.463993	223.728556	-2672.573482	732.610250	193.909136	-2597.374501	606.190829	222.739425	-2701.634567	455.483433	270.832362	-2739.569783	454.826223	194.022216	-2729.967843	425.755175	228.113419	-2799.490272	381.023769	245.185142	-3008.032750	336.492224	230.180913	-2870.474599	178.318197	235.451143	-2880.099523	210.127940	138.639810	-2848.798197	185.333829	184.519894	-3057.551219	704.648633	485.035745	-3038.789539	640.098583	485.024070	-3004.219134	631.880771	492.347789	-3083.751193	572.456765	453.697632	-3112.968578	457.594473	444.269364	-3147.062919	331.653285	394.921004	-3252.148168	317.699171	416.532809	-3221.171171	284.938600	404.298354	-3239.177906	243.419538	367.427712	-3398.793478	148.872798	336.920943	-3450.975016	125.548934	280.950154	-3239.368531	62.822593	306.834994	-3249.947898	60.641473	347.413966	-3304.215442	51.259912	390.802389	
510	2.545000	-2518.532539	1745.847016	466.203924	-2679.094000	1719.813718	374.072920	-2656.035671	1710.867587	523.801340	-2721.909030	1554.922075	452.693284	-2881.607524	1245.651608	388.834484	-2603.452139	1442.143573	419.608613	-2628.910820	1575.889668	293.988990	-2775.841956	1502.855906	134.166075	-2757.888002	1466.634961	101.399339	-2817.994534	1468.924609	89.127993	-2856.916363	1407.335655	28.227981	-2900.786535	1380.048505	98.365229	-2814.831552	1131.862688	-0.734513	-2840.437758	1152.431068	-71.753224	-2829.468271	1047.298232	-22.816214	-2604.375537	1488.171478	587.293149	-2654.617206	1256.366132	648.731056	-2614.181734	1238.983559	625.575474	-2643.718327	1188.753416	633.959917	-2627.137243	1119.439007	613.759587	-2668.080457	1118.095462	532.036573	-2436.463190	1236.446999	441.694036	-2392.739211	1173.916352	455.394456	-2361.456383	1263.470113	401.280589	-2777.169207	998.623418	265.684197	-2849.720927	976.387719	487.501806	-2944.186577	1129.667874	347.096729	-2957.081251	1105.823575	313.354158	-2970.055620	1103.464624	368.424900	-2739.107242	822.129452	172.407745	-2658.555986	797.043813	192.958622	-2634.739604	826.034621	222.912942	-2639.918682	740.312635	194.882505	-2560.802555	616.846483	223.599217	-2655.300413	459.423505	271.668806	-2691.885158	455.291080	194.292070	-2680.881347	427.290217	229.109424	-2747.679245	378.304003	245.870962	-2952.872788	318.292079	229.171032	-2804.388412	171.249345	237.655188	-2815.493262	200.558337	140.206856	-2782.845112	178.783635	186.621953	-3036.098472	709.321935	484.843141	-3019.495761	644.360676	484.924562	-2985.819200	634.494494	490.620908	-3068.282937	578.296758	452.780766	-3102.732105	464.935405	443.528883	-3138.713856	338.752915	395.723581	-3243.761408	325.792675	418.190854	-3213.014439	292.715150	406.137977	-3231.613837	250.741694	369.973335	-3391.978540	157.345353	342.379541	-3444.525899	137.217472	285.223774	-3238.372118	62.140085	307.782338	-3248.793210	59.572917	348.350069	-3303.210691	51.884906	391.650542	
511	2.550000	-2491.235340	1749.077712	463.634169	-2651.154077	1722.798861	370.651454	-2629.077112	1713.787518	520.563492	-2693.510091	1557.306014	450.485104	-2852.324791	1247.005574	391.291382	-2574.860261	1445.990331	416.496872	-2601.497074	1578.940314	292.019059	-2750.035467	1508.889475	133.820771	-2733.028400	1472.747242	100.440923	-2793.401887	1475.784982	89.223282	-2833.933768	1415.795066	28.249100	-2876.265411	1387.410858	99.164692	-2791.297661	1140.576544	-7.165326	-2819.303661	1162.297824	-76.947498	-2806.172117	1056.314542	-30.205788	-2573.690475	1492.570261	583.474849	-2621.103138	1261.129541	648.716014	-2581.200151	1243.450441	624.741758	-2610.645436	1193.271230	634.367185	-2594.573939	1124.174408	614.919779	-2636.689850	1121.820350	533.402690	-2410.408726	1248.555077	441.160117	-2364.521814	1187.460630	453.656240	-2336.780274	1278.659762	400.302142	-2747.325589	1002.865351	264.898512	-2818.205479	976.893660	486.703748	-2914.488104	1130.702297	349.464109	-2927.834843	1107.121547	315.686530	-2940.223708	1104.343972	370.900087	-2708.518648	827.346367	172.865587	-2627.494583	803.472247	193.084933	-2603.806874	833.593662	221.717964	-2608.116800	747.059825	195.609291	-2525.513910	626.421181	224.060029	-2609.896658	462.887516	272.313096	-2644.966285	455.340061	194.447853	-2632.655375	428.564671	230.003801	-2696.348350	375.461888	246.564115	-2897.105116	300.141263	228.657922	-2738.486770	165.144632	240.575337	-2750.883228	191.526518	142.525967	-2717.111313	173.057952	189.498212	-3013.552064	714.445288	484.850631	-2998.914955	649.181023	484.828517	-2966.195706	637.764253	488.753435	-3051.391046	584.820380	451.980280	-3090.760033	473.233678	442.778214	-3128.767431	346.735477	396.485129	-3233.731724	334.783981	419.897299	-3203.284068	301.364368	407.950807	-3222.483972	258.931325	372.592463	-3383.469937	166.812304	348.014658	-3436.256201	150.274699	289.605955	-3236.874781	61.792154	308.726727	-3247.192758	58.876388	349.315154	-3301.763917	53.212863	392.360240	
512	2.555000	-2463.876400	1752.354872	460.934848	-2623.150313	1725.840857	367.102680	-2602.123507	1716.806114	517.072769	-2665.059951	1559.752025	448.150211	-2822.945978	1248.418020	393.800443	-2546.278967	1449.874976	413.349184	-2574.058447	1581.870870	290.002896	-2723.922681	1514.463261	133.172396	-2707.821058	1478.264114	99.463233	-2768.388868	1481.991064	89.108772	-2810.383545	1423.388640	28.318141	-2851.232918	1394.114642	99.984489	-2766.922360	1148.491263	-12.757982	-2796.947575	1171.125818	-81.433636	-2781.911764	1064.413194	-36.667951	-2543.103883	1496.811115	579.658283	-2588.274948	1265.917049	648.800488	-2548.885171	1247.783298	624.214367	-2578.380434	1197.769214	634.999300	-2562.932871	1128.833295	616.472530	-2606.139140	1125.502609	535.237031	-2384.865346	1259.273270	441.067825	-2337.123623	1199.456537	452.356020	-2312.558843	1292.173926	399.987057	-2717.441008	1007.202711	264.215814	-2786.489942	977.800011	485.926462	-2884.631919	1131.905806	351.932134	-2898.483359	1108.534911	318.177631	-2910.271657	1105.438768	373.530104	-2678.418905	831.921358	173.324517	-2597.003459	808.934710	193.003762	-2573.247053	840.077865	220.239885	-2577.093500	752.811257	196.109372	-2491.456602	634.763153	224.133793	-2565.513935	465.775075	272.757123	-2598.919409	454.922136	194.489777	-2585.418531	429.496803	230.776530	-2645.640382	372.467016	247.261573	-2840.898108	282.215731	228.615282	-2673.048826	160.094448	244.204134	-2686.489166	183.108154	145.557117	-2651.854451	168.218887	193.095325	-2989.830397	719.829693	485.071120	-2976.954288	654.340137	484.730169	-2945.191164	641.518462	486.816762	-3032.875731	591.773600	451.371623	-3076.827174	482.189143	442.054234	-3117.023315	355.354642	397.204684	-3221.882152	344.507331	421.575316	-3191.861068	310.694998	409.644636	-3211.643024	267.836421	375.195465	-3373.196185	177.250982	353.533674	-3426.032533	164.670957	293.865754	-3234.741703	62.012777	309.609557	-3245.013162	58.823118	350.248992	-3299.748270	55.515837	392.834304	
